<svg width="1200" height="675" viewBox="0 0 1200 675" fill="none" xmlns="http://www.w3.org/2000/svg">
  <rect width="1200" height="675" fill="#090D14"/>
  <rect x="40" y="40" width="1120" height="595" rx="30" fill="#0B111A" stroke="#1B2637"/>
  <circle cx="257" cy="266" r="108" fill="#0E1827" stroke="#20314B"/>
  <circle cx="257" cy="266" r="56" fill="#14253A" stroke="#3D77B5"/>
  <path d="M257 138V72M257 460V394M129 266H63M451 266H385M166 175L118 127M396 405L348 357M396 127L348 175M166 357L118 405" stroke="#446E97" stroke-width="8" stroke-linecap="round"/>
  <rect x="536" y="122" width="493" height="120" rx="22" fill="#101725" stroke="#20314B"/>
  <text x="580" y="172" fill="#7DD3FC" font-family="JetBrains Mono, monospace" font-size="22">MODEL RELEASE</text>
  <text x="580" y="214" fill="#ECF3FB" font-family="Inter, Arial, sans-serif" font-size="46" font-weight="700">Real-time reasoning</text>
  <rect x="536" y="288" width="493" height="220" rx="22" fill="#0E1521" stroke="#1D2C41"/>
  <text x="580" y="348" fill="#9CB1C9" font-family="Inter, Arial, sans-serif" font-size="24">Signals tracked</text>
  <text x="580" y="412" fill="#ECF3FB" font-family="Inter, Arial, sans-serif" font-size="74" font-weight="700">1M</text>
  <text x="730" y="412" fill="#90A1B9" font-family="Inter, Arial, sans-serif" font-size="28">context window</text>
  <path d="M580 460H984" stroke="#28405E" stroke-width="2"/>
  <path d="M580 490H938" stroke="#28405E" stroke-width="2"/>
</svg>
